<svg width="26" height="24" viewBox="0 0 26 24" fill="none" xmlns="http://www.w3.org/2000/svg">
<path d="M14.0851 23.0042C13.4189 23.6705 12.3387 23.6705 11.6724 23.0042L0.815208 12.147C0.148955 11.4807 0.148955 10.4005 0.815208 9.73428C1.48146 9.06802 2.56167 9.06802 3.22792 9.73428L12.8788 19.3851L22.5296 9.73428C23.1959 9.06802 24.2761 9.06802 24.9424 9.73428C25.6086 10.4005 25.6086 11.4807 24.9424 12.147L14.0851 23.0042ZM11.1727 2.16125C11.1727 1.21903 11.9366 0.455206 12.8788 0.455206C13.821 0.455206 14.5848 1.21903 14.5848 2.16125L12.8788 2.16125L11.1727 2.16125ZM12.8788 21.7979L11.1727 21.7979L11.1727 2.16125L12.8788 2.16125L14.5848 2.16125L14.5848 21.7979L12.8788 21.7979Z" fill="white"/>
</svg>
