<svg width="66" height="66" viewBox="0 0 66 66" fill="none" xmlns="http://www.w3.org/2000/svg">
<g clip-path="url(#clip0_135_267)">
<path d="M33.226 0.452148C26.7439 0.452148 20.4074 2.37431 15.0178 5.97556C9.62812 9.57681 5.4274 14.6954 2.94681 20.6841C0.466227 26.6727 -0.182807 33.2625 1.08178 39.62C2.34637 45.9775 5.46779 51.8173 10.0513 56.4008C14.6348 60.9843 20.4746 64.1058 26.8321 65.3703C33.1897 66.6349 39.7794 65.9859 45.7681 63.5053C51.7567 61.0247 56.8753 56.824 60.4766 51.4344C64.0778 46.0447 66 39.7082 66 33.2261C65.9905 24.5368 62.5345 16.2062 56.3902 10.0619C50.246 3.91765 41.9153 0.461637 33.226 0.452148ZM33.226 62.9275C27.3516 62.9275 21.6092 61.1856 16.7248 57.9219C11.8404 54.6583 8.03352 50.0196 5.78549 44.5924C3.53746 39.1651 2.94927 33.1932 4.09531 27.4317C5.24134 21.6702 8.07013 16.3779 12.2239 12.2241C16.3778 8.07023 21.67 5.24145 27.4316 4.09541C33.1931 2.94938 39.165 3.53756 44.5923 5.78559C50.0195 8.03362 54.6582 11.8405 57.9218 16.7249C61.1855 21.6093 62.9274 27.3517 62.9274 33.2261C62.9179 41.1005 59.7856 48.6497 54.2176 54.2177C48.6496 59.7858 41.1004 62.918 33.226 62.9275Z" fill="black"/>
<path d="M30.2148 18.8261C29.9236 18.5548 29.5384 18.407 29.1404 18.4141C28.7424 18.4211 28.3626 18.5823 28.0812 18.8638C27.7997 19.1453 27.6385 19.525 27.6314 19.923C27.6244 20.321 27.7722 20.7062 28.0435 20.9974L40.2723 33.2262L28.0435 45.455C27.8926 45.5956 27.7715 45.7652 27.6876 45.9537C27.6036 46.1421 27.5584 46.3456 27.5548 46.5519C27.5512 46.7581 27.5891 46.963 27.6664 47.1543C27.7436 47.3456 27.8587 47.5194 28.0045 47.6653C28.1504 47.8111 28.3242 47.9262 28.5155 48.0034C28.7068 48.0807 28.9117 48.1186 29.1179 48.115C29.3242 48.1114 29.5277 48.0662 29.7161 47.9822C29.9046 47.8983 30.0742 47.7772 30.2148 47.6263L43.5292 34.3118C43.8169 34.0238 43.9785 33.6333 43.9785 33.2262C43.9785 32.8191 43.8169 32.4286 43.5292 32.1406L30.2148 18.8261Z" fill="black"/>
</g>
<defs>
<clipPath id="clip0_135_267">
<rect width="65.5479" height="65.5479" fill="white" transform="translate(0.452026 0.452148)"/>
</clipPath>
</defs>
</svg>
